<?xml version="1.0" encoding="UTF-8"?>
<svg id="Camada_2" data-name="Camada 2" xmlns="http://www.w3.org/2000/svg" viewBox="0 0 342.82 363.27">
  <defs>
    <style>
      .cls-1 {
        fill: #d2bbff;
      }

      .cls-2 {
        fill: #ccc3d8;
      }
    </style>
  </defs>
  <g id="Camada_2-2" data-name="Camada 2">
    <g>
      <g>
        <path class="cls-2" d="M32.14,309.42c-.37-1.54-.92-2.8-1.65-3.78-.72-.98-1.52-1.74-2.38-2.28-.86-.53-1.69-.89-2.48-1.08v-.35c2.24-.28,4.03-.91,5.35-1.92s2.29-2.36,2.87-4.07c.58-1.7.87-3.77.87-6.2,0-3.69-.57-6.55-1.72-8.58-1.15-2.03-2.96-3.47-5.46-4.3-2.49-.84-5.75-1.27-9.76-1.27-2.75,0-5.11.01-7.07.04-1.96.02-3.78.08-5.42.17-.88.05-1.79.11-2.73.19-1.45.12-2.56,1.34-2.56,2.79v42.96c0,1.54,1.25,2.8,2.8,2.8h3.03c1.54,0,2.8-1.25,2.8-2.8v-16.73c.38.01.77.02,1.19.02,2.15.03,4.74.04,7.77.04,1.54,0,2.75.34,3.65,1.01.88.67,1.58,1.86,2.1,3.54l3.63,13.57c.21.79.93,1.35,1.75,1.35h5.43c1.21,0,2.08-1.16,1.74-2.32l-3.73-12.8ZM22.55,297.48c-1.22.44-2.87.68-4.97.73h-7.65c-.72,0-1.31-.59-1.31-1.31v-13.1c0-.72.58-1.3,1.29-1.31,2.28-.02,4.83-.04,7.67-.04,2.1,0,3.76.22,4.97.66,1.22.45,2.08,1.23,2.59,2.35.51,1.12.77,2.71.77,4.76s-.26,3.73-.77,4.87c-.51,1.14-1.38,1.93-2.59,2.38Z"/>
        <path class="cls-2" d="M77.68,320.18l.13,2c.07,1.09-.75,2.03-1.84,2.1-1.61.11-3.29.19-5.03.23-2.47.07-4.98.12-7.52.14-2.55.03-5.03.04-7.46.04-2.98,0-5.37-.83-7.17-2.49-1.8-1.65-2.72-3.88-2.77-6.68v-30.25c.05-2.8.97-5.03,2.77-6.69,1.8-1.66,4.19-2.48,7.17-2.48h7.46c2.54,0,5.05.05,7.52.14,1.75.06,3.43.15,5.04.27,1.09.08,1.91,1.01,1.83,2.1l-.13,2c-.09,1.44-1.29,2.57-2.74,2.57h-16.33c-1.31,0-2.27.32-2.9.98-.63.65-.94,1.68-.94,3.07v8.83h18.15c1.07,0,1.94.87,1.94,1.94v2.56c0,1.07-.87,1.94-1.94,1.94h-18.15v11.06c0,1.41.31,2.43.94,3.08s1.6.98,2.9.98h16.33c1.45,0,2.64,1.12,2.74,2.57Z"/>
        <path class="cls-2" d="M121.52,303.4c-1.48-2.2-4.05-3.46-7.74-3.79v-.28c2.99-.28,5.14-1.33,6.45-3.14,1.31-1.83,1.96-4.46,1.96-7.91s-.53-5.89-1.61-7.7c-1.07-1.82-2.84-3.09-5.29-3.82-2.45-.72-5.73-1.08-9.83-1.08-2.57,0-4.82.01-6.76.03-1.94.03-3.71.08-5.32.14-.32.01-.65.03-.98.05-2.29.13-4.09,2.03-4.09,4.32v40.28c0,2.29,1.79,4.18,4.08,4.32.54.03,1.07.06,1.59.09,1.82.09,3.83.15,6.02.17,2.19.03,4.76.04,7.7.04,3.78,0,6.85-.36,9.21-1.08,2.35-.72,4.08-2,5.18-3.82,1.09-1.83,1.64-4.39,1.64-7.7,0-3.88-.73-6.91-2.2-9.1ZM96.84,282.4c.52-.01,1.05-.01,1.62-.01h6.58c2.24,0,3.99.18,5.25.53,1.26.34,2.16,1.03,2.69,2.06.54,1.02.8,2.5.8,4.41s-.25,3.38-.76,4.42c-.51,1.02-1.35,1.74-2.49,2.13-1.15.4-2.71.59-4.72.59h-8.97v-14.13ZM114.1,315.54c-.54,1.09-1.44,1.85-2.7,2.24-1.26.4-2.98.59-5.17.59-3.53,0-6.66,0-9.39-.05v-15.84h9.04c2.33,0,4.14.24,5.42.73,1.29.49,2.21,1.34,2.76,2.52.56,1.2.84,2.9.84,5.15,0,2-.27,3.56-.8,4.65Z"/>
        <path class="cls-2" d="M152.86,275.32c3.73,0,6.88.41,9.45,1.23,2.57.82,4.63,2.18,6.2,4.1,1.56,1.91,2.7,4.48,3.4,7.7.7,3.22,1.05,7.24,1.05,12.04s-.35,8.76-1.05,12.01c-.7,3.24-1.83,5.82-3.4,7.74-1.56,1.91-3.63,3.28-6.2,4.1-2.57.82-5.72,1.23-9.45,1.23s-6.75-.41-9.31-1.23c-2.57-.82-4.65-2.18-6.23-4.1-1.59-1.91-2.73-4.49-3.43-7.74-.7-3.24-1.05-7.25-1.05-12.01s.35-8.82,1.05-12.04c.7-3.22,1.84-5.79,3.43-7.7,1.59-1.91,3.66-3.28,6.23-4.1,2.57-.82,5.67-1.23,9.31-1.23ZM152.86,282.46c-2.76,0-4.91.55-6.48,1.65-1.56,1.1-2.67,2.94-3.33,5.53-.65,2.59-.98,6.17-.98,10.75s.33,8.16.98,10.75c.65,2.59,1.76,4.43,3.33,5.53,1.56,1.1,3.72,1.65,6.48,1.65s4.98-.55,6.55-1.65c1.56-1.1,2.67-2.94,3.33-5.53.65-2.59.98-6.17.98-10.75s-.33-8.16-.98-10.75c-.65-2.59-1.76-4.43-3.33-5.53-1.56-1.1-3.75-1.65-6.55-1.65Z"/>
        <path class="cls-2" d="M217.24,303.4c-1.47-2.2-4.05-3.46-7.73-3.79v-.28c2.98-.28,5.13-1.33,6.44-3.14,1.31-1.83,1.97-4.46,1.97-7.91s-.54-5.89-1.62-7.7c-1.07-1.82-2.83-3.09-5.28-3.82-2.45-.72-5.74-1.08-9.84-1.08-2.56,0-4.82.01-6.75.03-1.94.03-3.72.08-5.32.14-.33.01-.66.03-.99.05-2.29.13-4.09,2.03-4.09,4.32v40.28c0,2.29,1.79,4.18,4.08,4.32.54.03,1.07.06,1.59.09,1.82.09,3.83.15,6.03.17,2.19.03,4.76.04,7.7.04,3.78,0,6.84-.36,9.2-1.08,2.36-.72,4.09-2,5.18-3.82,1.09-1.83,1.65-4.39,1.65-7.7,0-3.88-.73-6.91-2.21-9.1ZM200.75,282.39c2.24,0,3.99.18,5.24.53,1.27.34,2.16,1.03,2.7,2.06.53,1.02.8,2.5.8,4.41s-.26,3.38-.77,4.42c-.51,1.02-1.34,1.74-2.48,2.13-1.15.4-2.72.59-4.73.59h-7.37c-.88,0-1.59-.71-1.59-1.59v-10.96c0-.88.71-1.59,1.59-1.59,0,0,.01,0,.02,0h6.59ZM209.81,315.54c-.53,1.09-1.44,1.85-2.69,2.24-1.27.4-2.99.59-5.18.59-2.86,0-5.46,0-7.81-.03-.87,0-1.58-.72-1.58-1.59v-12.67c0-.88.71-1.59,1.59-1.59h7.44c2.34,0,4.15.24,5.43.73,1.28.49,2.2,1.34,2.76,2.52.56,1.2.83,2.9.83,5.15,0,2-.26,3.56-.8,4.65Z"/>
        <path class="cls-2" d="M238.98,278.67v43.43c0,1.35-1.09,2.44-2.44,2.44h-3.86c-1.35,0-2.44-1.09-2.44-2.44v-43.43c0-1.35,1.09-2.44,2.44-2.44h3.86c1.35,0,2.44,1.09,2.44,2.44Z"/>
        <path class="cls-2" d="M287.94,276.23c1.69,0,3.06,1.37,3.06,3.06v41.96c0,2.19-1.07,3.29-3.22,3.29h-5.95c-.98,0-1.73-.22-2.24-.67-.51-.44-.98-1.11-1.4-2l-14.63-29.13c-.47-1.03-.98-2.16-1.54-3.4-.56-1.24-1-2.42-1.33-3.54h-.91c.09,1.17.18,2.35.25,3.54.07,1.19.1,2.37.1,3.54v28.58c0,1.69-1.37,3.06-3.06,3.06h-2.27c-1.69,0-3.06-1.37-3.06-3.06v-41.96c0-2.19,1.07-3.29,3.22-3.29h5.81c.98,0,1.73.22,2.24.67.51.44.98,1.11,1.4,2l14.21,28.36c.56,1.03,1.13,2.18,1.72,3.47.58,1.28,1.13,2.58,1.64,3.89h1.05c-.09-1.35-.17-2.67-.25-3.96-.07-1.28-.1-2.56-.1-3.82v-27.53c0-1.69,1.37-3.06,3.06-3.06h2.2Z"/>
        <path class="cls-2" d="M328.18,278.54c-.23-.7-.63-1.27-1.19-1.68-.56-.42-1.22-.63-1.96-.63h-8.55c-.74,0-1.42.21-2,.63-.58.41-.96.97-1.16,1.68l-13.5,42.43c-.56,1.77.76,3.57,2.61,3.57h3.17c1.22,0,2.29-.8,2.63-1.97l2.99-10.13c.3-1,1.22-1.69,2.26-1.69h14.49c1.04,0,1.97.69,2.26,1.69l3.01,10.14c.35,1.16,1.42,1.96,2.63,1.96h3.16c1.86,0,3.18-1.81,2.61-3.57l-13.5-42.43ZM316.8,303.88c-1.51,0-2.6-1.45-2.17-2.9l4.04-13.69c.23-.74.44-1.49.63-2.24.14-.57.27-1.13.39-1.68.06-.29.31-.49.6-.49h.96c.29,0,.54.2.6.49.12.55.24,1.11.39,1.68.18.75.37,1.5.55,2.24l4.07,13.68c.43,1.45-.66,2.91-2.17,2.91h-7.89Z"/>
      </g>
      <g>
        <path class="cls-1" d="M156.02,337.1c2.8,0,5.03.18,6.71.53s2.91.96,3.7,1.81c.79.85,1.18,2.02,1.18,3.51,0,1.12-.16,2.13-.47,3.02-.32.89-.87,1.62-1.65,2.19-.79.57-1.91.96-3.38,1.15v.15c2.45.27,4.12.94,5.03,2.01.91,1.07,1.38,2.51,1.42,4.31.03,1.73-.33,3.15-1.1,4.26-.77,1.11-2.04,1.93-3.8,2.45-1.77.52-4.15.79-7.16.79-1.99,0-4.02-.07-6.08-.2-1.66-.11-3.27-.23-4.84-.36-.63-.05-1.09-.61-1.03-1.24l.11-1.22c.06-.6.58-1.06,1.18-1.03.91.04,1.77.07,2.56.1,1.1.05,2.17.09,3.2.11,1.03.02,2.09.04,3.17.04,1.82,0,3.26-.12,4.33-.37,1.07-.24,1.83-.68,2.31-1.32.47-.63.71-1.49.71-2.56,0-.85-.17-1.58-.5-2.17s-.94-1.06-1.83-1.39c-.89-.33-2.21-.48-3.96-.46h-5.6c-.64,0-1.16-.52-1.16-1.16v-.85c0-.64.52-1.16,1.16-1.16h5.6c1.26,0,2.26-.11,3.01-.33.75-.22,1.31-.51,1.68-.86.37-.35.61-.77.73-1.24.12-.47.18-.97.18-1.48-.04-.93-.24-1.62-.63-2.08-.38-.46-1.04-.77-1.97-.93-.93-.16-2.21-.24-3.85-.24-1.78,0-3.5.02-5.14.05-1.2.03-2.3.06-3.29.11-.6.03-1.11-.42-1.18-1.01l-.12-1.13c-.07-.63.39-1.19,1.01-1.26,1.49-.16,2.96-.28,4.39-.37,1.8-.11,3.59-.17,5.38-.17Z"/>
        <path class="cls-1" d="M198.23,343.99c-.44-1.67-1.15-3-2.14-3.98-.98-.99-2.27-1.7-3.87-2.12-1.6-.43-3.55-.64-5.84-.64s-4.28.03-6.14.09c-1.2.04-2.35.09-3.47.14-1.03.05-1.84.9-1.84,1.93v21.56c0,1.03.81,1.88,1.84,1.93,1.12.05,2.28.1,3.49.14,1.88.06,3.92.09,6.12.09s4.24-.21,5.84-.64c1.6-.43,2.89-1.13,3.87-2.12.99-.99,1.7-2.32,2.14-3.98.44-1.67.66-3.74.66-6.2s-.22-4.53-.66-6.2ZM192.5,355.8c-.41,1.35-1.1,2.3-2.09,2.85-.98.55-2.32.82-4.03.82-1.88,0-3.58-.01-5.11-.05-.28-.01-.56-.01-.83-.02v-18.48c.35-.01.71-.01,1.07-.02,1.43-.02,3.05-.03,4.87-.03,1.71,0,3.05.28,4.03.84.99.56,1.68,1.51,2.09,2.87.42,1.35.62,3.22.62,5.61s-.2,4.26-.62,5.61Z"/>
      </g>
      <g>
        <path class="cls-2" d="M287.24,36.03l-47.94-30.1c-3.8-3.8-8.95-5.93-14.32-5.93h-108.52c-5.37,0-10.52,2.13-14.32,5.93l-47.94,30.1c-3.8,3.8-5.93,8.95-5.93,14.32v187c0,4.65,3.76,8.41,8.41,8.41h228.08c4.65,0,8.41-3.76,8.41-8.41V50.35c0-5.37-2.13-10.52-5.93-14.32ZM89.36,188.68c0,2.23-.89,4.36-2.46,5.94l-21.4,21.4-.76.76c-1.89,1.89-5.11.55-5.11-2.11V56.92c0-1.99,1.61-3.6,3.6-3.6h22.57c1.97,0,3.56,1.59,3.56,3.56v131.8ZM240.72,182.96c0,1.84-1.49,3.33-3.33,3.33h-17.37l6.45,22.13c.95,3.24,2.46,8.45.43,11.15-2.03,2.71-7.26,2.46-10.64,2.46h-13.87c-4.81,0-9.03-3.25-10.27-7.89l-7.45-27.85h-27.59v22.59c0,.98-.11,1.93-.32,2.85-.34,1.56-.96,3.01-1.81,4.3-2.34,3.61-6.41,6-11.02,6h-7.73c-7.25,0-13.14-5.9-13.14-13.15v-22.59h-19.01c-1.84,0-3.33-1.49-3.33-3.33V56.65c0-1.84,1.49-3.33,3.33-3.33h29.06c2.04,0,3.7-1.66,3.7-3.7v-3.96c0-2.04-1.66-3.7-3.7-3.7h-64.85c-1.45,0-2.17-1.76-1.15-2.78l44.96-27.12v-.7h117.3v.7l44.96,27.12c1.02,1.02.3,2.78-1.15,2.78h-64.85c-2.04,0-3.7,1.66-3.7,3.7v3.96c0,2.04,1.66,3.7,3.7,3.7h29.06c1.84,0,3.33,1.49,3.33,3.33v126.31ZM281.81,214.67c0,2.66-3.22,4-5.11,2.11l-.76-.76-21.4-21.4c-1.57-1.58-2.46-3.71-2.46-5.94V56.88c0-1.97,1.59-3.56,3.56-3.56h22.57c1.99,0,3.6,1.61,3.6,3.6v157.75Z"/>
        <g>
          <path class="cls-1" d="M142.76,91.33c-2.25.12-4.58.28-6.98.48-3.7.3-6.54,3.41-6.54,7.11v109.77c0,3.95,3.2,7.15,7.15,7.15h7.72c3.95,0,7.15-3.2,7.15-7.15v-113.29c0-2.43-2.03-4.36-4.46-4.26-1.39.06-2.74.12-4.04.2ZM217.39,197.91h-23.17l1.6,5.98h23.32l-1.75-5.98ZM213.95,186.09l-.04-.14h-22.89l.04.14,1.56,5.84h23.03l-1.7-5.84ZM207.48,167.98c-1.81-2.53-3.8-4.54-5.96-5.96h-44.58c0,2.23,1.79,4.03,4.02,4.05,3.96.03,8.35.03,13.19.03,3.35,0,6.11.63,8.26,1.9h25.06s0,0,0-.02ZM194.36,138.09c-.25.93-.55,1.77-.89,2.53-.61,1.34-1.4,2.49-2.39,3.45h24.16c.18-.43.35-.86.5-1.31.5-1.45.91-3.01,1.24-4.67h-22.62ZM217.96,126.13h-22.56c.03.66.04,1.34.04,2.04,0,1.39-.05,2.71-.14,3.94h22.48c.13-1.65.19-3.38.19-5.2,0-.26,0-.52-.01-.78ZM213.59,105.01c-.56-.99-1.18-1.93-1.87-2.81h-53.05c-.95,0-1.73.77-1.73,1.73v2.53c0,.95.77,1.73,1.73,1.73h56.42c-.45-1.13-.95-2.19-1.5-3.17ZM216.83,114.17h-24.42c.4.57.75,1.18,1.06,1.85.54,1.17.97,2.56,1.28,4.13h22.94c-.19-2.13-.48-4.13-.86-5.98ZM156.94,156.04h0s46.16,0,46.16,0c2.01-.78,3.78-1.74,5.3-2.89,1.21-.91,2.3-1.95,3.27-3.09h-48.75c-3.3,0-5.98,2.68-5.98,5.98ZM211.35,177.19c-.27-1.13-.58-2.2-.94-3.21h-23.02c.52,1.12,1,2.37,1.43,3.74l.6,2.24h22.74l-.81-2.77ZM221.76,213.38l-.88-3.51h-23.47l.68,2.53c.55,2.03,2.39,3.44,4.49,3.44h17.26c1.29,0,2.23-1.21,1.92-2.46Z"/>
          <path class="cls-1" d="M204.66,96.22h-34.06c-2.95,0-5.35-2.4-5.35-5.35v-2.41c0-.95.77-1.72,1.72-1.72h8.47c.62,0,1.12.5,1.12,1.12h0c0,1.67,1.35,3.02,3.02,3.02h.02c10.27,0,13.66.99,20.03,3.14,1.82.61,3.5,1.34,5.03,2.2Z"/>
        </g>
        <g>
          <path class="cls-2" d="M192.47,22.48h-43.14c-2.57,0-4.65,2.09-4.65,4.66v33.48c0,2.57,2.08,4.65,4.65,4.65h6.7v6.86c0,1.47,1.18,2.65,2.65,2.65h24.43c1.47,0,2.66-1.18,2.66-2.65v-6.86h6.7c2.57,0,4.66-2.08,4.66-4.65V27.14c0-2.57-2.09-4.66-4.66-4.66ZM176.58,46.9c0,.91-.74,1.65-1.65,1.65h-8.01c-.92,0-1.65-.74-1.65-1.65v-2.36c0-.91.73-1.65,1.65-1.65h8.01c.91,0,1.65.74,1.65,1.65v2.36Z"/>
          <path class="cls-2" d="M176.58,79.29v2.37c0,.91-.74,1.65-1.65,1.65h-8.06c-.91,0-1.65-.74-1.65-1.65v-2.37c0-.92.74-1.65,1.65-1.65h8.06c.91,0,1.65.73,1.65,1.65Z"/>
        </g>
      </g>
      <g>
        <path class="cls-2" d="M32.14,309.42c-.37-1.54-.92-2.8-1.65-3.78-.72-.98-1.52-1.74-2.38-2.28-.86-.53-1.69-.89-2.48-1.08v-.35c2.24-.28,4.03-.91,5.35-1.92s2.29-2.36,2.87-4.07c.58-1.7.87-3.77.87-6.2,0-3.69-.57-6.55-1.72-8.58-1.15-2.03-2.96-3.47-5.46-4.3-2.49-.84-5.75-1.27-9.76-1.27-2.75,0-5.11.01-7.07.04-1.96.02-3.78.08-5.42.17-1.64.09-3.39.23-5.24.42-.03,0-.05.03-.05.05v48.21s.02.05.05.05h8.51s.05-.02.05-.05v-19.47c.38.01.77.02,1.19.02,2.15.03,4.74.04,7.77.04,1.54,0,2.75.34,3.65,1.01.88.67,1.58,1.86,2.1,3.54l3.99,14.92h9.24l-4.41-15.13ZM22.55,297.48c-1.22.44-2.87.68-4.97.73h-8.96v-15.71c2.59-.03,5.57-.05,8.96-.05,2.1,0,3.76.22,4.97.66,1.22.45,2.08,1.23,2.59,2.35.51,1.12.77,2.71.77,4.76s-.26,3.73-.77,4.87c-.51,1.14-1.38,1.93-2.59,2.38Z"/>
        <path class="cls-2" d="M77.51,317.61l.42,6.51c-2.19.19-4.53.32-7,.38-2.47.07-4.98.12-7.52.14-2.55.03-5.03.04-7.46.04-2.98,0-5.37-.83-7.17-2.49-1.8-1.65-2.72-3.88-2.77-6.68v-30.25c.05-2.8.97-5.03,2.77-6.69,1.8-1.66,4.19-2.48,7.17-2.48h7.46c2.54,0,5.05.05,7.52.14,2.47.09,4.81.23,7,.42l-.42,6.51s0,0,0,0h-18.9c-1.31,0-2.27.32-2.9.98-.63.65-.94,1.68-.94,3.07v8.83h20.09v6.44h-20.09v11.06c0,1.41.31,2.43.94,3.08s1.6.98,2.9.98h18.9s0,0,0,0Z"/>
        <path class="cls-2" d="M121.52,303.4c-1.48-2.2-4.05-3.46-7.74-3.79v-.28c2.99-.28,5.14-1.33,6.45-3.14,1.31-1.83,1.96-4.46,1.96-7.91s-.53-5.89-1.61-7.7c-1.07-1.82-2.84-3.09-5.29-3.82-2.45-.72-5.73-1.08-9.83-1.08-2.57,0-4.82.01-6.76.03-1.94.03-3.71.08-5.32.14-1.17.05-2.39.13-3.64.25-.81.07-1.43.76-1.43,1.58v45.4c0,.83.65,1.52,1.48,1.58,1.44.09,2.83.18,4.2.25,1.82.09,3.83.15,6.02.17,2.19.03,4.76.04,7.7.04,3.78,0,6.85-.36,9.21-1.08,2.35-.72,4.08-2,5.18-3.82,1.09-1.83,1.64-4.39,1.64-7.7,0-3.88-.73-6.91-2.2-9.1ZM96.84,282.4c.52-.01,1.05-.01,1.62-.01h6.58c2.24,0,3.99.18,5.25.53,1.26.34,2.16,1.03,2.69,2.06.54,1.02.8,2.5.8,4.41s-.25,3.38-.76,4.42c-.51,1.02-1.35,1.74-2.49,2.13-1.15.4-2.71.59-4.72.59h-8.97v-14.13ZM114.1,315.54c-.54,1.09-1.44,1.85-2.7,2.24-1.26.4-2.98.59-5.17.59-3.53,0-6.66,0-9.39-.05v-15.84h9.04c2.33,0,4.14.24,5.42.73,1.29.49,2.21,1.34,2.76,2.52.56,1.2.84,2.9.84,5.15,0,2-.27,3.56-.8,4.65Z"/>
        <path class="cls-2" d="M152.86,275.32c3.73,0,6.88.41,9.45,1.23,2.57.82,4.63,2.18,6.2,4.1,1.56,1.91,2.7,4.48,3.4,7.7.7,3.22,1.05,7.24,1.05,12.04s-.35,8.76-1.05,12.01c-.7,3.24-1.83,5.82-3.4,7.74-1.56,1.91-3.63,3.28-6.2,4.1-2.57.82-5.72,1.23-9.45,1.23s-6.75-.41-9.31-1.23c-2.57-.82-4.65-2.18-6.23-4.1-1.59-1.91-2.73-4.49-3.43-7.74-.7-3.24-1.05-7.25-1.05-12.01s.35-8.82,1.05-12.04c.7-3.22,1.84-5.79,3.43-7.7,1.59-1.91,3.66-3.28,6.23-4.1,2.57-.82,5.67-1.23,9.31-1.23ZM152.86,282.46c-2.76,0-4.91.55-6.48,1.65-1.56,1.1-2.67,2.94-3.33,5.53-.65,2.59-.98,6.17-.98,10.75s.33,8.16.98,10.75c.65,2.59,1.76,4.43,3.33,5.53,1.56,1.1,3.72,1.65,6.48,1.65s4.98-.55,6.55-1.65c1.56-1.1,2.67-2.94,3.33-5.53.65-2.59.98-6.17.98-10.75s-.33-8.16-.98-10.75c-.65-2.59-1.76-4.43-3.33-5.53-1.56-1.1-3.75-1.65-6.55-1.65Z"/>
        <path class="cls-2" d="M217.24,303.4c-1.47-2.2-4.05-3.46-7.73-3.79v-.28c2.98-.28,5.13-1.33,6.44-3.14,1.31-1.83,1.97-4.46,1.97-7.91s-.54-5.89-1.62-7.7c-1.07-1.82-2.83-3.09-5.28-3.82-2.45-.72-5.74-1.08-9.84-1.08-2.56,0-4.82.01-6.75.03-1.94.03-3.72.08-5.32.14-1.18.05-2.39.13-3.65.25-.81.07-1.43.76-1.43,1.58v45.4c0,.83.65,1.52,1.48,1.58,1.44.09,2.84.18,4.2.25,1.82.09,3.83.15,6.03.17,2.19.03,4.76.04,7.7.04,3.78,0,6.84-.36,9.2-1.08,2.36-.72,4.09-2,5.18-3.82,1.09-1.83,1.65-4.39,1.65-7.7,0-3.88-.73-6.91-2.21-9.1ZM200.75,282.39c2.24,0,3.99.18,5.24.53,1.27.34,2.16,1.03,2.7,2.06.53,1.02.8,2.5.8,4.41s-.26,3.38-.77,4.42c-.51,1.02-1.34,1.74-2.48,2.13-1.15.4-2.72.59-4.73.59h-8.96v-14.14h1.61s6.59,0,6.59,0ZM209.81,315.54c-.53,1.09-1.44,1.85-2.69,2.24-1.27.4-2.99.59-5.18.59-3.52,0-6.65,0-9.38-.05v-15.84h9.03c2.34,0,4.15.24,5.43.73,1.28.49,2.2,1.34,2.76,2.52.56,1.2.83,2.9.83,5.15,0,2-.26,3.56-.8,4.65Z"/>
        <path class="cls-2" d="M238.98,276.23v48.31h-8.75v-48.31h8.75Z"/>
        <path class="cls-2" d="M290.68,276.23c.18,0,.32.14.32.32v44.7c0,2.19-1.07,3.29-3.22,3.29h-5.95c-.98,0-1.73-.22-2.24-.67-.51-.44-.98-1.11-1.4-2l-14.63-29.13c-.47-1.03-.98-2.16-1.54-3.4-.56-1.24-1-2.42-1.33-3.54h-.91c.09,1.17.18,2.35.25,3.54.07,1.19.1,2.37.1,3.54v31.33c0,.18-.14.32-.32.32h-7.76c-.18,0-.32-.14-.32-.32v-44.7c0-2.19,1.07-3.29,3.22-3.29h5.81c.98,0,1.73.22,2.24.67.51.44.98,1.11,1.4,2l14.21,28.36c.56,1.03,1.13,2.18,1.72,3.47.58,1.28,1.13,2.58,1.64,3.89h1.05c-.09-1.35-.17-2.67-.25-3.96-.07-1.28-.1-2.56-.1-3.82v-30.28c0-.18.14-.32.32-.32h7.69Z"/>
        <path class="cls-2" d="M328.18,278.54c-.23-.7-.63-1.27-1.19-1.68-.56-.42-1.22-.63-1.96-.63h-8.55c-.74,0-1.42.21-2,.63-.58.41-.96.97-1.16,1.68l-14.63,46h8.97l4.07-13.79h18.02l4.1,13.79h8.96l-14.63-46ZM313.77,303.88l4.89-16.59c.23-.74.44-1.49.63-2.24.18-.74.35-1.47.49-2.17h1.96c.14.7.3,1.43.49,2.17.18.75.37,1.5.55,2.24l4.93,16.59h-13.95Z"/>
      </g>
    </g>
  </g>
</svg>