<?xml version="1.0" encoding="UTF-8"?>
<svg id="Camada_2" data-name="Camada 2" xmlns="http://www.w3.org/2000/svg" viewBox="0 0 1306.75 147.72">
  <defs>
    <style>
      .cls-1 {
        fill: #d2bbff;
      }

      .cls-2 {
        fill: #ccc3d8;
      }
    </style>
  </defs>
  <g id="Camada_2-2" data-name="Camada 2">
    <g>
      <path class="cls-2" d="M94.7,100.47c-1.09-4.53-2.72-8.26-4.85-11.13-2.13-2.9-4.47-5.12-7.01-6.72-2.55-1.57-4.97-2.63-7.31-3.2v-1.04c6.6-.83,11.87-2.69,15.77-5.65,3.91-2.96,6.75-6.96,8.46-11.99,1.72-5,2.57-11.1,2.57-18.26,0-10.86-1.69-19.3-5.06-25.27-3.37-5.98-8.73-10.21-16.1-12.67-7.34-2.49-16.93-3.73-28.77-3.73-8.11,0-15.06.03-20.83.12-5.77.06-11.13.24-15.98.5C10.76,1.71,5.6,2.12.14,2.67.06,2.68,0,2.75,0,2.83v142.05c0,.09.07.16.16.16h25.08c.09,0,.16-.07.16-.16v-57.37c1.12.03,2.28.06,3.49.06,6.33.09,13.97.12,22.91.12,4.53,0,8.11,1.01,10.74,2.99,2.6,1.98,4.65,5.47,6.19,10.42l11.75,43.95h27.23l-12.99-44.57ZM66.44,65.31c-3.58,1.3-8.46,2.01-14.65,2.16h-26.4V21.18c7.64-.09,16.43-.15,26.4-.15,6.19,0,11.07.65,14.65,1.95,3.58,1.33,6.13,3.61,7.64,6.93,1.51,3.31,2.28,7.99,2.28,14.03s-.77,10.98-2.28,14.35c-1.51,3.34-4.05,5.68-7.64,7.01Z"/>
      <path class="cls-2" d="M228.38,124.62l1.24,19.17c-6.45.56-13.35.95-20.63,1.12-7.28.21-14.68.36-22.17.41-7.52.09-14.83.12-21.99.12-8.79,0-15.83-2.46-21.13-7.34-5.3-4.85-8.02-11.42-8.17-19.68V29.29c.15-8.26,2.87-14.83,8.17-19.71,5.3-4.88,12.34-7.31,21.13-7.31h21.99c7.49,0,14.89.15,22.17.41,7.28.27,14.18.68,20.63,1.24l-1.24,19.17s0,0,0,0h-55.69c-3.85,0-6.69.95-8.55,2.9-1.86,1.92-2.78,4.94-2.78,9.06v26.01h59.19v18.97h-59.19v32.58c0,4.14.92,7.16,2.78,9.09,1.86,1.92,4.71,2.9,8.55,2.9h55.69s0,0,0,0Z"/>
      <path class="cls-2" d="M358.07,82.74c-4.35-6.48-11.93-10.18-22.82-11.16v-.83c8.82-.83,15.15-3.91,19-9.26,3.85-5.39,5.77-13.14,5.77-23.32s-1.57-17.34-4.74-22.7c-3.17-5.36-8.38-9.12-15.6-11.25-7.22-2.13-16.87-3.2-28.97-3.2-7.58,0-14.21.03-19.92.09-5.71.09-10.92.24-15.69.41-3.44.15-7.03.4-10.73.73-2.39.22-4.21,2.25-4.21,4.64v133.78c0,2.45,1.91,4.49,4.35,4.65,4.23.28,8.35.52,12.37.74,5.36.27,11.28.44,17.73.5,6.45.09,14.03.12,22.7.12,11.13,0,20.18-1.07,27.14-3.2,6.93-2.13,12.02-5.89,15.27-11.25,3.23-5.39,4.82-12.93,4.82-22.7,0-11.42-2.16-20.36-6.48-26.81ZM285.32,20.86c1.54-.03,3.11-.03,4.76-.03h19.38c6.6,0,11.75.53,15.48,1.57,3.7,1.01,6.36,3.05,7.93,6.07,1.6,3.02,2.37,7.37,2.37,12.99s-.74,9.97-2.25,13.02c-1.51,3.02-3.97,5.12-7.34,6.27-3.37,1.18-7.99,1.75-13.91,1.75h-26.43V20.86ZM336.2,118.52c-1.6,3.23-4.23,5.45-7.96,6.6-3.7,1.18-8.79,1.75-15.24,1.75-10.39,0-19.62-.03-27.67-.15v-46.67h26.64c6.87,0,12.19.71,15.98,2.16,3.79,1.45,6.51,3.94,8.14,7.43,1.66,3.52,2.49,8.55,2.49,15.18,0,5.89-.8,10.48-2.37,13.7Z"/>
      <path class="cls-2" d="M450.39,0c11,0,20.29,1.21,27.85,3.61,7.56,2.41,13.65,6.43,18.26,12.07,4.61,5.64,7.94,13.2,10.01,22.69,2.06,9.49,3.1,21.32,3.1,35.49s-1.03,25.82-3.1,35.38c-2.06,9.56-5.4,17.16-10.01,22.8-4.61,5.64-10.7,9.66-18.26,12.07-7.57,2.4-16.85,3.61-27.85,3.61s-19.88-1.21-27.44-3.61c-7.57-2.4-13.69-6.43-18.36-12.07-4.68-5.64-8.05-13.24-10.11-22.8-2.06-9.56-3.09-21.36-3.09-35.38s1.03-26,3.09-35.49c2.06-9.49,5.43-17.05,10.11-22.69,4.67-5.64,10.8-9.66,18.36-12.07,7.56-2.4,16.71-3.61,27.44-3.61ZM450.39,21.04c-8.12,0-14.48,1.62-19.08,4.85-4.61,3.23-7.88,8.66-9.8,16.3-1.93,7.63-2.89,18.19-2.89,31.67s.96,24.03,2.89,31.67c1.92,7.63,5.19,13.07,9.8,16.3,4.61,3.23,10.97,4.85,19.08,4.85s14.68-1.62,19.29-4.85c4.61-3.23,7.87-8.66,9.8-16.3,1.92-7.64,2.89-18.19,2.89-31.67s-.96-24.04-2.89-31.67c-1.93-7.63-5.19-13.07-9.8-16.3-4.61-3.23-11.04-4.85-19.29-4.85Z"/>
      <path class="cls-2" d="M640.08,82.74c-4.32-6.48-11.93-10.18-22.79-11.16v-.83c8.79-.83,15.12-3.91,18.97-9.26,3.85-5.39,5.8-13.14,5.8-23.32s-1.6-17.34-4.76-22.7c-3.17-5.36-8.35-9.12-15.57-11.25-7.22-2.13-16.9-3.2-29-3.2-7.55,0-14.21.03-19.89.09-5.71.09-10.95.24-15.69.41-3.47.15-7.05.4-10.76.73-2.39.22-4.22,2.25-4.22,4.64v133.77c0,2.45,1.91,4.49,4.36,4.65,4.25.28,8.36.52,12.36.74,5.36.27,11.28.44,17.76.5,6.45.09,14.03.12,22.7.12,11.13,0,20.15-1.07,27.11-3.2,6.95-2.13,12.05-5.89,15.27-11.25,3.23-5.39,4.85-12.93,4.85-22.7,0-11.42-2.16-20.36-6.51-26.81ZM591.51,20.83c6.6,0,11.75.53,15.45,1.57,3.73,1.01,6.36,3.05,7.96,6.07,1.57,3.02,2.37,7.37,2.37,12.99s-.77,9.97-2.28,13.02c-1.51,3.02-3.94,5.12-7.31,6.27-3.37,1.18-8.02,1.75-13.94,1.75h-26.4V20.83h4.74s19.41,0,19.41,0ZM618.21,118.52c-1.57,3.23-4.23,5.45-7.93,6.6-3.73,1.18-8.82,1.75-15.27,1.75-10.36,0-19.59-.03-27.64-.15v-46.67h26.61c6.9,0,12.22.71,16.01,2.16,3.76,1.45,6.48,3.94,8.14,7.43,1.66,3.52,2.46,8.55,2.46,15.18,0,5.89-.77,10.48-2.37,13.7Z"/>
      <path class="cls-2" d="M704.15,2.68v142.36h-25.79V2.68h25.79Z"/>
      <path class="cls-2" d="M856.49,2.68c.52,0,.95.42.95.95v131.71c0,6.47-3.16,9.7-9.49,9.7h-17.53c-2.89,0-5.09-.65-6.6-1.96-1.51-1.31-2.89-3.27-4.12-5.88l-43.12-85.83c-1.38-3.02-2.89-6.36-4.54-10.01-1.65-3.64-2.96-7.12-3.92-10.42h-2.68c.27,3.44.52,6.91.72,10.42.21,3.51.31,6.98.31,10.42v92.3c0,.52-.42.95-.95.95h-22.86c-.52,0-.95-.42-.95-.95V12.38c0-6.47,3.16-9.7,9.49-9.7h17.13c2.89,0,5.09.65,6.6,1.96,1.51,1.31,2.89,3.27,4.13,5.88l41.88,83.56c1.65,3.03,3.33,6.43,5.05,10.21,1.72,3.79,3.33,7.6,4.85,11.45h3.1c-.28-3.99-.51-7.87-.72-11.66-.21-3.78-.31-7.53-.31-11.25V3.63c0-.52.42-.95.95-.95h22.65Z"/>
      <path class="cls-2" d="M966.98,9.49c-.68-2.07-1.86-3.73-3.49-4.94-1.66-1.24-3.58-1.86-5.77-1.86h-25.19c-2.19,0-4.17.62-5.89,1.86-1.72,1.21-2.84,2.87-3.4,4.94l-43.12,135.54h26.43l11.99-40.63h53.09l12.07,40.63h26.4l-43.12-135.54ZM924.51,84.16l14.41-48.89c.68-2.19,1.3-4.38,1.86-6.6.53-2.19,1.04-4.32,1.45-6.39h5.77c.41,2.07.89,4.2,1.45,6.39.53,2.22,1.09,4.41,1.63,6.6l14.53,48.89h-41.11Z"/>
    </g>
    <g>
      <g>
        <path class="cls-1" d="M1098.32,10.76c13.59,0,24.47.86,32.63,2.58s14.14,4.65,17.97,8.8c3.82,4.15,5.74,9.84,5.74,17.06,0,5.45-.76,10.34-2.29,14.67-1.53,4.33-4.21,7.88-8.03,10.66-3.82,2.79-9.3,4.65-16.44,5.6v.71c11.89,1.31,20.05,4.56,24.48,9.78,4.42,5.22,6.71,12.21,6.88,20.98.17,8.41-1.61,15.32-5.35,20.71-3.74,5.39-9.9,9.36-18.48,11.91-8.58,2.54-20.18,3.82-34.79,3.82-9.69,0-19.55-.33-29.57-.98-8.07-.53-15.92-1.11-23.54-1.75-3.06-.26-5.29-2.96-5.01-6.02l.54-5.94c.27-2.93,2.8-5.13,5.74-5.02,4.44.17,8.59.34,12.46.51,5.35.24,10.54.42,15.55.54,5.01.12,10.15.18,15.42.18,8.84,0,15.84-.59,21.03-1.78,5.18-1.18,8.92-3.32,11.22-6.4,2.29-3.08,3.44-7.23,3.44-12.44,0-4.14-.81-7.67-2.42-10.57s-4.59-5.16-8.92-6.76c-4.33-1.6-10.75-2.34-19.24-2.22h-27.23c-3.12,0-5.65-2.53-5.65-5.65v-4.16c0-3.12,2.53-5.65,5.65-5.65h27.23c6.12,0,11-.53,14.66-1.6,3.65-1.07,6.37-2.46,8.16-4.18,1.79-1.71,2.97-3.73,3.57-6.04.59-2.31.89-4.71.89-7.2-.17-4.5-1.19-7.88-3.06-10.13-1.87-2.25-5.06-3.76-9.56-4.53-4.51-.77-10.75-1.16-18.74-1.16-8.67,0-17,.09-24.98.27-5.84.13-11.17.31-16.01.53-2.91.14-5.4-2.03-5.72-4.92l-.6-5.48c-.34-3.04,1.88-5.8,4.92-6.13,7.26-.77,14.38-1.36,21.36-1.78,8.76-.54,17.46-.8,26.13-.8Z"/>
        <path class="cls-1" d="M1303.54,44.26c-2.14-8.12-5.59-14.59-10.4-19.35-4.76-4.81-11.04-8.26-18.82-10.31-7.78-2.09-17.26-3.11-28.39-3.11s-20.81.15-29.85.44c-5.82.19-11.44.41-16.87.68-5.01.25-8.95,4.36-8.95,9.38v104.83c0,5.02,3.94,9.13,8.95,9.38,5.45.27,11.1.49,16.96.68,9.14.29,19.06.44,29.75.44s20.61-1.02,28.39-3.11c7.78-2.09,14.05-5.49,18.82-10.31,4.81-4.81,8.26-11.28,10.4-19.35,2.14-8.12,3.21-18.18,3.21-30.14s-1.07-22.02-3.21-30.14ZM1275.69,101.68c-1.99,6.56-5.35,11.18-10.16,13.86-4.76,2.67-11.28,3.99-19.59,3.99-9.14,0-17.41-.05-24.84-.24-1.36-.05-2.72-.05-4.04-.1V29.33c1.7-.05,3.45-.05,5.2-.1,6.95-.1,14.83-.15,23.68-.15,8.31,0,14.83,1.36,19.59,4.08,4.81,2.72,8.17,7.34,10.16,13.95,2.04,6.56,3.01,15.66,3.01,27.28s-.97,20.71-3.01,27.28Z"/>
      </g>
      <path class="cls-1" d="M1098.32,10.76c13.59,0,24.47.86,32.63,2.58s14.14,4.65,17.97,8.8c3.82,4.15,5.74,9.84,5.74,17.06,0,5.45-.76,10.34-2.29,14.67-1.53,4.33-4.21,7.88-8.03,10.66-3.82,2.79-9.3,4.65-16.44,5.6v.71c11.89,1.31,20.05,4.56,24.48,9.78,4.42,5.22,6.71,12.21,6.88,20.98.17,8.41-1.61,15.32-5.35,20.71-3.74,5.39-9.9,9.36-18.48,11.91-8.58,2.54-20.18,3.82-34.79,3.82-9.69,0-19.55-.33-29.57-.98-10.03-.66-19.72-1.39-29.06-2.22l1.53-16.71c6.46.24,12.36.47,17.72.71,5.35.24,10.54.42,15.55.54,5.01.12,10.15.18,15.42.18,8.84,0,15.84-.59,21.03-1.78,5.18-1.18,8.92-3.32,11.22-6.4,2.29-3.08,3.44-7.23,3.44-12.44,0-4.14-.81-7.67-2.42-10.57s-4.59-5.16-8.92-6.76c-4.33-1.6-10.75-2.34-19.24-2.22h-32.88v-15.46h32.88c6.12,0,11-.53,14.66-1.6,3.65-1.07,6.37-2.46,8.16-4.18,1.79-1.71,2.97-3.73,3.57-6.04.59-2.31.89-4.71.89-7.2-.17-4.5-1.19-7.88-3.06-10.13-1.87-2.25-5.06-3.76-9.56-4.53-4.51-.77-10.75-1.16-18.74-1.16-8.67,0-17,.09-24.98.27-7.99.18-15.04.45-21.16.8l-1.79-16.18c9.18-1.07,18.14-1.87,26.89-2.4,8.76-.54,17.46-.8,26.13-.8Z"/>
      <path class="cls-1" d="M1303.54,44.26c-2.14-8.12-5.59-14.59-10.4-19.35-4.76-4.81-11.04-8.26-18.82-10.31-7.78-2.09-17.26-3.11-28.39-3.11s-20.81.15-29.85.44c-9.09.29-17.7.68-25.82,1.17v122.62c8.12.49,16.77.88,25.91,1.17s19.06.44,29.75.44,20.61-1.02,28.39-3.11c7.78-2.09,14.05-5.49,18.82-10.31,4.81-4.81,8.26-11.28,10.4-19.35,2.14-8.12,3.21-18.18,3.21-30.14s-1.07-22.02-3.21-30.14ZM1275.69,101.68c-1.99,6.56-5.35,11.18-10.16,13.86-4.76,2.67-11.28,3.99-19.59,3.99-9.14,0-17.41-.05-24.84-.24-1.36-.05-2.72-.05-4.04-.1V29.33c1.7-.05,3.45-.05,5.2-.1,6.95-.1,14.83-.15,23.68-.15,8.31,0,14.83,1.36,19.59,4.08,4.81,2.72,8.17,7.34,10.16,13.95,2.04,6.56,3.01,15.66,3.01,27.28s-.97,20.71-3.01,27.28Z"/>
    </g>
  </g>
</svg>